<?xml version="1.0" standalone="no"?>
<!DOCTYPE svg PUBLIC "-//W3C//DTD SVG 20010904//EN"
 "http://www.w3.org/TR/2001/REC-SVG-20010904/DTD/svg10.dtd">
<svg version="1.0" xmlns="http://www.w3.org/2000/svg"
 width="700.000000pt" height="700.000000pt" viewBox="0 0 700.000000 700.000000"
 preserveAspectRatio="xMidYMid meet">
<metadata>
Created by potrace 1.11, written by Peter Selinger 2001-2013
</metadata>
<g transform="translate(0.000000,700.000000) scale(0.100000,-0.100000)"
fill="#000000" stroke="none">
<path d="M3299 6556 c-2 -2 -37 -6 -76 -10 -62 -5 -103 -12 -243 -41 -8 -2
-15 -4 -15 -5 0 -1 -11 -3 -24 -6 -82 -15 -429 -163 -451 -192 -3 -4 -17 -13
-32 -21 -58 -30 -226 -164 -311 -248 -228 -225 -388 -500 -473 -812 -24 -90
-29 -111 -40 -196 -3 -21 -9 -57 -13 -80 -11 -60 -6 -370 8 -450 6 -38 14 -83
17 -100 26 -159 125 -415 223 -575 43 -72 139 -206 171 -240 129 -139 190
-197 296 -277 222 -167 500 -288 772 -334 31 -5 75 -12 97 -16 22 -4 119 -7
215 -7 158 0 195 3 280 18 14 3 43 7 65 11 63 9 247 61 270 76 6 3 23 9 38 13
62 15 330 159 397 213 8 7 42 33 74 58 156 119 314 299 427 485 102 167 206
441 225 589 2 20 9 63 15 96 14 77 20 352 8 430 -4 33 -11 83 -15 110 -9 74
-59 259 -94 350 -167 431 -480 774 -893 978 -159 78 -362 143 -507 162 -30 4
-64 9 -75 12 -24 5 -331 13 -336 9z m281 -900 c14 -3 48 -11 75 -17 77 -18
197 -72 272 -122 424 -282 538 -854 255 -1281 -111 -167 -286 -299 -481 -360
-106 -34 -156 -41 -281 -41 -131 0 -181 8 -325 52 -41 13 -172 86 -225 126
-118 89 -231 229 -287 355 -54 122 -75 219 -76 357 -2 154 4 200 44 320 106
318 380 554 709 610 19 3 36 8 38 9 5 6 255 -1 282 -8z"/>
<path d="M2296 2727 c-83 -48 -504 -304 -542 -329 -23 -16 -46 -28 -51 -28
-14 0 -69 -61 -87 -97 -13 -26 -15 -58 -12 -180 2 -82 9 -175 15 -208 6 -33
13 -73 15 -90 2 -16 9 -50 16 -75 7 -25 14 -54 17 -65 2 -11 5 -24 7 -30 10
-44 56 -167 92 -246 193 -432 548 -773 991 -950 93 -37 249 -83 316 -93 27 -4
59 -10 70 -12 88 -20 412 -26 486 -10 14 3 47 8 75 11 65 8 219 48 321 84 500
179 900 577 1085 1082 27 74 38 110 55 182 2 10 7 27 10 37 9 27 13 55 21 119
3 31 8 59 10 63 3 4 7 83 11 176 7 199 1 226 -60 275 -81 66 -647 399 -681
402 -53 5 -107 -29 -126 -79 -5 -14 -10 -159 -10 -323 -1 -164 -6 -320 -11
-348 -5 -27 -12 -66 -15 -85 -8 -49 -70 -204 -107 -264 -97 -161 -225 -279
-391 -360 -149 -73 -217 -89 -381 -90 -151 -1 -225 11 -351 57 -270 99 -485
340 -566 634 -20 71 -22 107 -25 408 -2 182 -8 347 -13 367 -21 74 -112 106
-184 65z"/>
</g>
</svg>
